<?xml version="1.0" encoding="utf-8"?>
<!-- Generator: Adobe Illustrator 21.0.2, SVG Export Plug-In . SVG Version: 6.00 Build 0)  -->
<svg version="1.1" id="Layer_1" xmlns="http://www.w3.org/2000/svg" xmlns:xlink="http://www.w3.org/1999/xlink" x="0px" y="0px"
	 viewBox="0 0 24 24" style="enable-background:new 0 0 24 24;" xml:space="preserve">
<style type="text/css">
	.st0{fill:#EA324A;}
	.st1{fill:#FFFFFF;}
</style>
<circle class="st0" cx="12" cy="12" r="12"/>
<path class="st1" d="M17.4,9.1c0-0.1,0-0.1,0-0.1V8.9c-0.1-0.4-0.5-0.8-1-0.8h0.1c0,0-2-0.3-4.6-0.3c-2.6,0-4.6,0.3-4.6,0.3h0.1
	c-0.5,0-0.9,0.3-1.1,0.8v0.1c0,0.1,0,0.1-0.1,0.1C6.2,9.6,6,10.6,6,11.8s0.2,2.2,0.2,2.8c0,0.1,0,0.1,0.1,0.1v0.1
	c0.2,0.4,0.6,0.8,1.1,0.8H7.2c0,0,1.9,0.3,4.6,0.3c2.6,0,4.6-0.3,4.6-0.3h-0.1c0.5,0,0.9-0.3,1-0.8v-0.1c0-0.1,0-0.1,0-0.1
	c0-0.5,0.2-1.6,0.2-2.8S17.5,9.6,17.4,9.1z M13.5,12.1l-2.3,1.7c-0.1,0.1-0.1,0.1-0.2,0.1s-0.1,0-0.1-0.1c-0.1-0.1-0.1-0.1-0.1-0.2
	v-3.4c0-0.1,0.1-0.2,0.1-0.2c0.1-0.1,0.2-0.1,0.3,0l2.4,1.7c0.1,0.1,0.1,0.1,0.1,0.2C13.7,11.9,13.6,12,13.5,12.1z"/>
</svg>
