<?xml version="1.0" encoding="utf-8"?>
<!-- Generator: Adobe Illustrator 21.0.2, SVG Export Plug-In . SVG Version: 6.00 Build 0)  -->
<svg version="1.1" id="Layer_1" xmlns="http://www.w3.org/2000/svg" xmlns:xlink="http://www.w3.org/1999/xlink" x="0px" y="0px"
	 viewBox="0 0 24 24" style="enable-background:new 0 0 24 24;" xml:space="preserve">
<style type="text/css">
	.st0{fill:#EA324A;}
	.st1{fill:#FFFFFF;}
</style>
<g>
	<path class="st0" d="M0,12C0,5.3,5.4,0,12,0c6.7,0,12,5.4,12,12.1c0,6.6-5.4,12-12.1,11.9C5.3,24,0,18.6,0,12z M13.2,17.6
		c0-0.1,0-0.2,0-0.3c0-1.4,0-2.9,0-4.3c0-0.6,0.2-1,0.7-1.3c0.8-0.6,1.8-0.2,2.1,0.7c0.1,0.3,0.1,0.7,0.1,1c0,1.3,0,2.6,0,4
		c0,0.1,0,0.2,0,0.3c0.9,0,1.8,0,2.7,0c0-0.1,0-0.2,0-0.2c0-1.5,0-3,0-4.5c0-0.5-0.1-1.1-0.2-1.6c-0.3-1.1-1.1-1.8-2.2-2
		c-1.2-0.2-2.3,0.1-3,1.1c0,0,0,0.1-0.1,0.1c0-0.4,0-0.8,0-1.1c-0.9,0-1.8,0-2.7,0c0,2.7,0,5.4,0,8.1C11.4,17.6,12.2,17.6,13.2,17.6
		z M6.2,9.5c0,2.7,0,5.4,0,8.1c0.9,0,1.8,0,2.7,0c0-2.7,0-5.4,0-8.1C8,9.5,7.1,9.5,6.2,9.5z M7.6,8.4c0.8,0,1.3-0.4,1.5-1
		c0.2-0.8-0.2-1.5-0.9-1.7c-0.8-0.3-1.7,0.1-2,0.8C5.8,7.4,6.5,8.4,7.6,8.4z"/>
	<path class="st1" d="M13.2,17.6c-0.9,0-1.8,0-2.7,0c0-2.7,0-5.4,0-8.1c0.9,0,1.8,0,2.7,0c0,0.3,0,0.7,0,1.1
		c0.1-0.1,0.1-0.1,0.1-0.1c0.7-1.1,1.8-1.3,3-1.1c1.1,0.2,1.9,0.9,2.2,2c0.1,0.5,0.2,1,0.2,1.6c0,1.5,0,3,0,4.5c0,0.1,0,0.1,0,0.2
		c-0.9,0-1.8,0-2.7,0c0-0.1,0-0.2,0-0.3c0-1.3,0-2.6,0-4c0-0.3,0-0.7-0.1-1c-0.3-0.9-1.3-1.3-2.1-0.7c-0.4,0.3-0.7,0.8-0.7,1.3
		c0,1.4,0,2.9,0,4.3C13.2,17.4,13.2,17.5,13.2,17.6z"/>
	<path class="st1" d="M6.2,9.5c0.9,0,1.8,0,2.7,0c0,2.7,0,5.4,0,8.1c-0.9,0-1.8,0-2.7,0C6.2,14.9,6.2,12.2,6.2,9.5z"/>
	<path class="st1" d="M7.6,8.4c-1.1,0-1.8-0.9-1.4-1.9c0.3-0.7,1.1-1.1,2-0.8c0.7,0.2,1.1,1,0.9,1.7C8.9,8,8.3,8.4,7.6,8.4z"/>
</g>
</svg>
