<svg xmlns="http://www.w3.org/2000/svg" width="27" height="27" viewBox="0 0 27 27">
    <g fill="none" fill-rule="evenodd">
        <circle cx="13.5" cy="13.5" r="13.5" fill="#EA324A"/>
        <path fill="#FFF" fill-rule="nonzero" d="M20.435 9.416a5.498 5.498 0 0 1-1.587.435 2.768 2.768 0 0 0 1.215-1.529 5.531 5.531 0 0 1-1.754.671 2.763 2.763 0 0 0-4.708 2.52 7.846 7.846 0 0 1-5.696-2.887 2.762 2.762 0 0 0 .855 3.69 2.755 2.755 0 0 1-1.252-.346v.035c0 1.338.953 2.455 2.217 2.71a2.778 2.778 0 0 1-1.248.046 2.766 2.766 0 0 0 2.58 1.92 5.543 5.543 0 0 1-4.09 1.143 7.82 7.82 0 0 0 4.236 1.242c5.083 0 7.862-4.21 7.862-7.862 0-.12-.003-.24-.008-.358a5.596 5.596 0 0 0 1.378-1.43z"/>
    </g>
</svg>
